<svg xmlns="http://www.w3.org/2000/svg" viewBox="0 0 256 256">
  <rect width="256" height="256" fill="#000"/>
  <path fill="#f2f2f2" d="M128 24c57.4 0 104 46.6 104 104 0 19.2-5.2 37.1-14.3 52.4-8.7 14.6-29.4 19.4-44 10.8-14.6-8.7-19.4-29.4-10.8-44 3.6-6 5.6-13 5.6-20.2 0-22.1-17.9-40-40-40s-40 17.9-40 40c0 11.8 5.1 22.5 13.3 29.8 11.2 10 13.5 26.9 5.4 39.5l-22.9 35.6c-8 12.4-24.4 17.4-37.8 11.4C19.7 230.8 0 197.8 0 160 0 85 53 24 128 24z"/>
  <circle cx="183" cy="211" r="27" fill="#f2f2f2"/>
</svg>
